<?xml version="1.0" encoding="UTF-8" standalone="no"?>
<!-- Created with Inkscape (http://www.inkscape.org/) -->

<svg
   width="215.41733mm"
   height="215.90816mm"
   viewBox="0 0 215.41733 215.90816"
   version="1.1"
   id="svg5"
   inkscape:version="1.1.2 (0a00cf5339, 2022-02-04)"
   sodipodi:docname="BloomValleyNurseryIconCG.svg"
   xmlns:inkscape="http://www.inkscape.org/namespaces/inkscape"
   xmlns:sodipodi="http://sodipodi.sourceforge.net/DTD/sodipodi-0.dtd"
   xmlns="http://www.w3.org/2000/svg"
   xmlns:svg="http://www.w3.org/2000/svg">
  <sodipodi:namedview
     id="namedview7"
     pagecolor="#505050"
     bordercolor="#ffffff"
     borderopacity="1"
     inkscape:pageshadow="0"
     inkscape:pageopacity="0"
     inkscape:pagecheckerboard="1"
     inkscape:document-units="mm"
     showgrid="false"
     fit-margin-top="0"
     fit-margin-left="0"
     fit-margin-right="0"
     fit-margin-bottom="0"
     inkscape:zoom="0.19442866"
     inkscape:cx="460.32308"
     inkscape:cy="-478.32454"
     inkscape:window-width="1920"
     inkscape:window-height="1043"
     inkscape:window-x="2560"
     inkscape:window-y="0"
     inkscape:window-maximized="1"
     inkscape:current-layer="layer1" />
  <defs
     id="defs2" />
  <g
     inkscape:label="Layer 1"
     inkscape:groupmode="layer"
     id="layer1"
     transform="translate(6.632331,-37.990548)">
    <path
       style="fill:#034139;stroke:none;stroke-width:0.352778"
       d="m 77.825821,243.92813 3.52778,-19.05 c 7.92409,1.88736 16.984833,1.64253 25.047209,1.08973 30.67474,-2.10255 55.71032,-17.82304 68.0332,-46.59806 3.52637,-8.23454 5.59153,-16.91111 6.8513,-25.75278 0.39052,-2.74249 1.55645,-7.36882 -0.0988,-9.83932 -1.59456,-2.37984 -6.31402,-1.80234 -8.81627,-1.80234 -8.50406,0 -17.08573,0.71155 -25.4,2.59291 -36.57565,8.27617 -59.686459,36.64938 -70.908329,71.13764 -24.32614,-14.34606 -47.6324,-33.8649 -49.70991,-64.20555 -0.66111,-9.6513 1.36243,-18.56282 3.49603,-27.86945 18.81751,5.14668 31.10159,25.75737 35.9297,43.39167 1.79317,6.54896 3.27802,13.33817 3.90772,20.10833 0.22684,2.43875 0.45579,5.81519 3.55424,6.19548 2.41582,0.29704 4.18077,-1.79846 4.09963,-4.07881 -0.2053,-5.76016 -1.47353,-11.65296 -2.6183,-17.28611 -3.89572,-19.17277 -13.38827,-38.44255 -30.05631,-49.50637 -4.16136,-2.76189 -8.6106,-4.90996 -13.40555,-6.33095 -1.90006,-0.56338 -4.60552,-1.20579 -6.27063,0.25154 -1.60619,1.40546 -1.98719,4.23933 -2.54882,6.19689 -1.62136,5.64938 -2.77671,11.42506 -3.20639,17.28611 -1.93157,26.35179 9.43186,49.5434 29.31195,66.62914 5.16854,4.44182 10.74173,8.2624 16.58055,11.75808 2.22885,1.33421 6.68443,2.58762 8.22219,4.66302 1.01142,1.36489 -0.30056,4.35222 -0.60219,5.84976 -0.99272,4.93289 -2.19957,10.12472 -2.32304,15.16944 -0.0476,1.94628 -0.38488,4.39208 1.44427,5.64268 3.08928,2.11138 8.67833,2.38548 12.30877,2.96898 12.404723,1.99319 25.415869,1.80975 37.747209,-0.65617 15.0735,-3.01448 29.47142,-9.12883 41.98057,-18.08374 11.56687,-8.28005 21.80201,-18.9237 29.13944,-31.14675 24.99571,-41.63836 19.97815,-95.16004 -13.29584,-130.880557 -7.62212,-8.18197 -16.68569,-14.97739 -26.42694,-20.41186 -9.94057,-5.54556 -20.8922,-9.51935 -32.10278,-11.54119 -13.46059,-2.42768 -27.115206,-2.47153 -40.569439,0.0659 -9.84426,1.85656 -20.13549,5.10353 -28.92777,9.96597 -9.96315,5.50997 -19.56717,11.89867 -27.50291,20.15769 -27.2348295,28.34463 -37.39935,68.766977 -26.6207095,106.538537 6.1087,21.40655 19.4241895,41.18327 37.1902895,54.63469 4.70252,3.56059 12.22198,10.45704 18.34444,10.94317 3.82517,0.30374 5.24333,-4.13103 2.44898,-6.47736 -2.7312,-2.29305 -6.48829,-3.77895 -9.50454,-5.7224 -5.15302,-3.3207 -9.9829,-7.25523 -14.46388,-11.42895 -19.45662,-18.12431 -28.5229695,-42.54076 -30.98454951,-68.40748 -0.93422,-9.81675 0.86519001,-20.53061 3.41454001,-29.98611 3.08899,-11.45717 8.1434195,-21.994647 14.8788295,-31.750007 27.34027,-39.59733 80.726123,-53.70269 124.168949,-33.75776 52.1155,23.92655 73.8579,89.098367 46.32183,139.238317 -4.84787,8.8272 -11.0617,17.4251 -18.45239,24.31027 -17.57468,16.37206 -40.35143,27.17976 -64.55834,28.23986 -9.814626,0.42968 -18.951909,-2.03624 -28.574989,-2.45569 M 115.57303,75.195973 c -5.17842,1.71556 -10.73679,8.10683 -14.21059,12.09887 -11.743969,13.497277 -17.215549,28.965877 -18.890539,46.566667 -0.65757,6.90915 0.13653,14.38769 1.49225,21.16666 0.57856,2.89313 1.63019,6.82237 5.50333,5.7711 4.855633,-1.31834 9.679163,-5.38304 13.405549,-8.59332 14.25293,-12.27772 19.64937,-30.4673 20.44736,-48.68333 0.32279,-7.373057 -0.51294,-15.379347 -2.14525,-22.577777 -0.63711,-2.81058 -1.67922,-7.04886 -5.60211,-5.74887 m -1.05833,9.9822 c 2.42217,19.066227 2.19251,39.161867 -10.30499,55.033337 -3.36621,4.27531 -8.127996,9.31686 -13.331116,11.28889 -1.766363,-5.58589 -1.486253,-12.23434 -1.090083,-17.99167 1.231903,-17.88442 9.158463,-38.032977 24.726189,-48.330557 m 59.61945,64.205557 c -0.0769,27.93506 -19.68288,56.08496 -45.86112,65.14253 -14.66638,5.07436 -29.629096,4.49368 -44.802769,3.29636 1.03964,-7.03827 4.88138,-14.17003 8.026753,-20.46111 10.595676,-21.19136 28.610276,-37.74088 51.592696,-44.29937 10.12895,-2.8903 20.57047,-3.67841 31.04444,-3.67841 z"
       id="path13828" />
    <path
       style="fill:#000000;stroke-width:0.352778"
       id="path13558"
       d="" />
  </g>
</svg>
